HIERARCHY
ROOT hip
{
  OFFSET 0 0 0
  CHANNELS 6 Xposition Yposition Zposition Zrotation Yrotation Xrotation
  JOINT abdomen
  {
    OFFSET 0 20.6881 -0.73152
    CHANNELS 3 Zrotation Xrotation Yrotation
    JOINT chest
    {
      OFFSET 0 11.7043 -0.48768
      CHANNELS 3 Zrotation Xrotation Yrotation
      JOINT neck
      {
        OFFSET 0 22.1894 -2.19456
        CHANNELS 3 Zrotation Xrotation Yrotation
        JOINT head
        {
          OFFSET -0.24384 7.07133 1.2192
          CHANNELS 3 Zrotation Xrotation Yrotation
          JOINT leftEye
          {
            OFFSET 4.14528 8.04674 8.04672
            CHANNELS 3 Zrotation Xrotation Yrotation
            End Site
            {
              OFFSET 1 0 0
            }
          }
          JOINT rightEye
          {
            OFFSET -3.6576 8.04674 8.04672
            CHANNELS 3 Zrotation Xrotation Yrotation
            End Site
            {
              OFFSET 1 0 0
            }
          }
        }
      }
      JOINT rCollar
      {
        OFFSET -2.68224 19.2634 -4.8768
        CHANNELS 3 Zrotation Xrotation Yrotation
        JOINT rShldr
        {
          OFFSET -8.77824 -1.95073 1.46304
          CHANNELS 3 Zrotation Xrotation Yrotation
          JOINT rForeArm
          {
            OFFSET -28.1742 -1.7115 0.48768
            CHANNELS 3 Zrotation Xrotation Yrotation
            JOINT rHand
            {
              OFFSET -22.5879 0.773209 7.07136
              CHANNELS 3 Zrotation Xrotation Yrotation
              JOINT rThumb1
              {
                OFFSET -1.2192 -0.487915 3.41376
                CHANNELS 3 Zrotation Xrotation Yrotation
                JOINT rThumb2
                {
                  OFFSET -3.37035 -0.52449 3.41376
                  CHANNELS 3 Zrotation Xrotation Yrotation
                  End Site
                  {
                    OFFSET -1.78271 -1.18214 1.43049
                  }
                }
              }
              JOINT rIndex1
              {
                OFFSET -7.75947 0.938293 5.60832
                CHANNELS 3 Zrotation Xrotation Yrotation
                JOINT rIndex2
                {
                  OFFSET -2.54057 -0.884171 1.56538
                  CHANNELS 3 Zrotation Xrotation Yrotation
                  End Site
                  {
                    OFFSET -1.62519 -0.234802 1.16502
                  }
                }
              }
              JOINT rMid1
              {
                OFFSET -8.24714 1.18213 3.41376
                CHANNELS 3 Zrotation Xrotation Yrotation
                JOINT rMid2
                {
                  OFFSET -3.10165 -0.590103 1.0647
                  CHANNELS 3 Zrotation Xrotation Yrotation
                  End Site
                  {
                    OFFSET -2.48547 -0.328903 0.83742
                  }
                }
              }
              JOINT rRing1
              {
                OFFSET -8.82822 0.546677 1.51678
                CHANNELS 3 Zrotation Xrotation Yrotation
                JOINT rRing2
                {
                  OFFSET -2.60934 -0.819778 -0.0198488
                  CHANNELS 3 Zrotation Xrotation Yrotation
                  End Site
                  {
                    OFFSET -2.33842 -0.294052 0.168128
                  }
                }
              }
              JOINT rPinky1
              {
                OFFSET -8.27202 -0.0477905 -0.4584
                CHANNELS 3 Zrotation Xrotation Yrotation
                JOINT rPinky2
                {
                  OFFSET -1.82734 -0.647385 -0.700984
                  CHANNELS 3 Zrotation Xrotation Yrotation
                  End Site
                  {
                    OFFSET -1.69225 -0.51767 -0.607171
                  }
                }
              }
            }
          }
        }
      }
      JOINT lCollar
      {
        OFFSET 2.68224 19.2634 -4.8768
        CHANNELS 3 Zrotation Xrotation Yrotation
        JOINT lShldr
        {
          OFFSET 8.77824 -1.95073 1.46304
          CHANNELS 3 Zrotation Xrotation Yrotation
          JOINT lForeArm
          {
            OFFSET 28.1742 -1.7115 0.48768
            CHANNELS 3 Zrotation Xrotation Yrotation
            JOINT lHand
            {
              OFFSET 22.5879 0.773209 7.07136
              CHANNELS 3 Zrotation Xrotation Yrotation
              JOINT lThumb1
              {
                OFFSET 1.2192 -0.487915 3.41376
                CHANNELS 3 Zrotation Xrotation Yrotation
                JOINT lThumb2
                {
                  OFFSET 3.37035 -0.52449 3.41376
                  CHANNELS 3 Zrotation Xrotation Yrotation
                  End Site
                  {
                    OFFSET 1.78271 -1.18214 1.43049
                  }
                }
              }
              JOINT lIndex1
              {
                OFFSET 7.75947 0.938293 5.60832
                CHANNELS 3 Zrotation Xrotation Yrotation
                JOINT lIndex2
                {
                  OFFSET 2.54057 -0.884171 1.56538
                  CHANNELS 3 Zrotation Xrotation Yrotation
                  End Site
                  {
                    OFFSET 1.62519 -0.234802 1.16502
                  }
                }
              }
              JOINT lMid1
              {
                OFFSET 8.24714 1.18213 3.41376
                CHANNELS 3 Zrotation Xrotation Yrotation
                JOINT lMid2
                {
                  OFFSET 3.10165 -0.590103 1.0647
                  CHANNELS 3 Zrotation Xrotation Yrotation
                  End Site
                  {
                    OFFSET 2.48547 -0.328903 0.83742
                  }
                }
              }
              JOINT lRing1
              {
                OFFSET 8.82822 0.546677 1.51678
                CHANNELS 3 Zrotation Xrotation Yrotation
                JOINT lRing2
                {
                  OFFSET 2.60934 -0.819778 -0.0198488
                  CHANNELS 3 Zrotation Xrotation Yrotation
                  End Site
                  {
                    OFFSET 2.33842 -0.294052 0.168128
                  }
                }
              }
              JOINT lPinky1
              {
                OFFSET 8.27202 -0.0477905 -0.4584
                CHANNELS 3 Zrotation Xrotation Yrotation
                JOINT lPinky2
                {
                  OFFSET 1.82734 -0.647385 -0.700984
                  CHANNELS 3 Zrotation Xrotation Yrotation
                  End Site
                  {
                    OFFSET 1.69225 -0.51767 -0.607171
                  }
                }
              }
            }
          }
        }
      }
    }
  }
  JOINT rButtock
  {
    OFFSET -8.77824 4.35084 1.2192
    CHANNELS 3 Zrotation Xrotation Yrotation
    JOINT rThigh
    {
      OFFSET 0 -1.70687 -2.19456
      CHANNELS 3 Zrotation Xrotation Yrotation
      JOINT rShin
      {
        OFFSET 0 -36.8199 0.73152
        CHANNELS 3 Zrotation Xrotation Yrotation
        JOINT rFoot
        {
          OFFSET 0.73152 -45.1104 -5.12064
          CHANNELS 3 Zrotation Xrotation Yrotation
          End Site
          {
            OFFSET -1.1221 -3.69964 12.103
          }
        }
      }
    }
  }
  JOINT lButtock
  {
    OFFSET 8.77824 4.35084 1.2192
    CHANNELS 3 Zrotation Xrotation Yrotation
    JOINT lThigh
    {
      OFFSET 0 -1.70687 -2.19456
      CHANNELS 3 Zrotation Xrotation Yrotation
      JOINT lShin
      {
        OFFSET 0 -36.8199 0.73152
        CHANNELS 3 Zrotation Xrotation Yrotation
        JOINT lFoot
        {
          OFFSET -0.73152 -45.1104 -5.12064
          CHANNELS 3 Zrotation Xrotation Yrotation
          End Site
          {
            OFFSET 1.1221 -3.69964 12.103
          }
        }
      }
    }
  }
}
MOTION
Frames:	4
Frame Time:	0.00833333
54.0488 85.1388 111.505 0.0 0.0 0.0 0.41059 -0.00336424 0.0117806 0.113459 -0.00539521 0.0196593 1.16347e-14 0.0 -2.48481e-17 3.48619e-14 3.18055e-15 -5.59082e-17 -0.0 0.0 0.0 -0.0 0.0 0.0 5.81335e-15 6.21202e-18 1.49089e-16 1.24446e-13 4.96962e-17 1.39149e-15 2.11497e-12 -6.30545e-13 -5.40694e-14 2.41589e-11 6.37329e-13 5.08889e-14 5.69962e-11 1.26642e-14 0.0 9.84262e-11 1.90833e-14 -1.27222e-14 5.70015e-11 1.63003e-14 -1.27222e-14 7.73091 5.47488 0.417314 5.69958e-11 1.26228e-14 3.18055e-15 2.90554 0.965183 0.102902 5.70061e-11 1.30204e-14 -3.18055e-15 10.2786 0.731801 0.0259123 5.69926e-11 1.27222e-14 0.0 2.22167 -0.733487 -0.20892 5.71654e-15 6.0179e-18 -1.49089e-16 1.20135e-13 2.91965e-16 -5.96354e-16 2.10851e-12 6.3293e-13 2.54444e-14 2.41681e-11 -6.25377e-13 -1.90833e-14 5.70037e-11 1.17881e-14 0.0 9.84429e-11 1.59028e-14 -2.38542e-15 5.69971e-11 1.23246e-14 6.36111e-15 -7.73091 5.47488 -0.417314 5.70036e-11 1.23246e-14 -3.18055e-15 -2.90554 0.965183 -0.102902 5.69899e-11 1.23246e-14 -1.59028e-15 -10.2786 0.731801 -0.0259123 5.70063e-11 1.03368e-14 -1.27222e-14 -2.22167 -0.733487 0.20892 -2.03217e-16 0.0 -3.88251e-19 0.770604 -4.17183 -0.0656816 -0.00265487 2.00555 -0.0182703 -0.461829 2.16687 0.0961009 2.03217e-16 0.0 3.88251e-19 -0.143235 -2.55995 0.0260685 0.00716321 -0.914091 0.0621719 0.453774 3.47457 -0.121225
54.7427 83.4699 105.744 179.978 -2.6861 -153.674 -1.17148 -9.01408 -0.745896 0.773555 3.47682 -0.329746 -0.648921 4.82835 -0.932173 3.20285 -13.1173 -0.933517 -0.0 0.0 0.0 -0.0 0.0 0.0 -2.2339e-14 -6.10719e-14 -2.93332e-14 23.0794 1.8904 -0.127445 -3.57422 -1.5139 5.69644 0.00368874 1.34886 0.189381 6.62468e-10 -9.49033e-10 1.14685e-09 1.15079e-09 -1.64407e-09 1.97961e-09 6.62471e-10 -9.49029e-10 1.14684e-09 7.73091 5.47488 0.417314 6.62466e-10 -9.49032e-10 1.14686e-09 2.90554 0.965183 0.102902 6.62474e-10 -9.49032e-10 1.14685e-09 10.2786 0.731801 0.0259123 6.62463e-10 -9.49032e-10 1.14686e-09 2.22167 -0.733487 -0.20892 -2.24667e-14 -6.10727e-14 -2.95906e-14 -21.4046 1.25269 -1.57511 1.94778 -0.667289 -3.23778 -0.0354761 4.28331 -0.596525 1.02366e-09 3.17544e-11 -7.91218e-10 1.75829e-09 4.83884e-11 -1.37986e-09 1.02365e-09 3.17563e-11 -7.91214e-10 -7.73091 5.47488 -0.417314 1.02366e-09 3.17561e-11 -7.91221e-10 -2.90554 0.965183 -0.102902 1.02364e-09 3.17566e-11 -7.9122e-10 -10.2786 0.731801 -0.0259123 1.02366e-09 3.17561e-11 -7.91231e-10 -2.22167 -0.733487 0.20892 -2.03217e-16 0.0 -3.88251e-19 0.16313 -11.1469 2.55867 0.00113621 4.1117 0.0372872 -0.600791 -2.57052 -1.59756 2.03217e-16 0.0 3.88251e-19 0.140457 -9.25038 -2.20643 0.00310533 1.17894 0.0232765 0.502559 1.31437 1.13419
54.7419 83.4687 105.751 179.975 -2.7102 -153.639 -3.10862 -18.5367 -1.61855 1.5137 7.15207 -0.705811 -1.17233 9.9374 -1.93571 6.07653 -26.9692 -2.08754 -0.0 0.0 0.0 -0.0 0.0 0.0 -5.29333e-14 -1.25231e-13 -6.27911e-14 47.483 3.9091 -0.268108 -7.02767 -3.06477 11.732 -0.00211223 2.76721 0.388874 1.32809e-09 -1.97776e-09 2.35491e-09 2.30741e-09 -3.42612e-09 4.06471e-09 1.32809e-09 -1.97775e-09 2.3549e-09 7.73091 5.47488 0.417314 1.32809e-09 -1.97775e-09 2.35492e-09 2.90554 0.965183 0.102902 1.32809e-09 -1.97775e-09 2.35492e-09 10.2786 0.731801 0.0259123 1.32808e-09 -1.97775e-09 2.35492e-09 2.22167 -0.733487 -0.20892 -5.30969e-14 -1.25233e-13 -6.30054e-14 -43.9613 2.48586 -3.23725 3.93679 -1.37084 -6.68188 0.0257415 8.70052 -1.2234 2.04381e-09 6.61913e-11 -1.62662e-09 3.51024e-09 1.0125e-10 -2.83649e-09 2.04381e-09 6.61947e-11 -1.62662e-09 -7.73091 5.47488 -0.417314 2.04382e-09 6.61943e-11 -1.62662e-09 -2.90554 0.965183 -0.102902 2.04381e-09 6.61953e-11 -1.62662e-09 -10.2786 0.731801 -0.0259123 2.04382e-09 6.61964e-11 -1.62663e-09 -2.22167 -0.733487 0.20892 -2.03217e-16 0.0 -3.88251e-19 0.250292 -18.4635 5.52402 0.000685273 6.3398 0.096472 -1.05523 -7.57232 -3.41807 2.03217e-16 0.0 3.88251e-19 -0.148386 -16.2845 -4.6975 0.00182863 3.39138 -0.0178858 0.657199 -0.969625 2.46222
54.7362 83.4667 105.749 179.947 -2.6767 -153.653 -5.12449 -27.0156 -2.50735 2.22296 10.4397 -1.04402 -1.46251 14.4694 -2.87795 8.0092 -39.3038 -3.52568 -0.0 0.0 0.0 -0.0 0.0 0.0 -7.86436e-14 -1.83228e-13 -8.82977e-14 69.2635 5.6711 -0.384007 -9.83225 -4.36244 17.1345 -0.0157409 4.04642 0.569407 1.87341e-09 -2.84712e-09 3.44056e-09 3.25551e-09 -4.93226e-09 5.93885e-09 1.87341e-09 -2.84712e-09 3.44055e-09 7.73091 5.47488 0.417314 1.87341e-09 -2.84712e-09 3.44057e-09 2.90554 0.965183 0.102902 1.87341e-09 -2.84712e-09 3.44057e-09 10.2786 0.731801 0.0259123 1.8734e-09 -2.84712e-09 3.44058e-09 2.22167 -0.733487 -0.20892 -7.88331e-14 -1.8323e-13 -8.84735e-14 -64.007 3.74671 -4.73435 5.61819 -1.97632 -9.71852 0.166939 12.8443 -1.83039 2.95696e-09 9.52397e-11 -2.37365e-09 5.07799e-09 1.45134e-10 -4.13956e-09 2.95696e-09 9.52443e-11 -2.37365e-09 -7.73091 5.47488 -0.417314 2.95697e-09 9.52437e-11 -2.37366e-09 -2.90554 0.965183 -0.102902 2.95695e-09 9.52452e-11 -2.37366e-09 -10.2786 0.731801 -0.0259123 2.95697e-09 9.52476e-11 -2.37367e-09 -2.22167 -0.733487 0.20892 -2.03217e-16 0.0 -3.88251e-19 1.03237 -24.8899 8.45213 -0.00364985 8.32397 0.149669 -1.73242 -12.0022 -5.09151 2.03217e-16 0.0 3.88251e-19 -0.965254 -22.4938 -7.13021 0.00352945 5.36501 -0.0547531 0.884047 -2.9992 3.6487
